<mxfile host="app.diagrams.net" modified="2023-08-11T16:36:42.288Z" agent="Mozilla/5.0 (Windows NT 10.0; Win64; x64) AppleWebKit/537.36 (KHTML, like Gecko) Chrome/115.0.0.0 Safari/537.36 Edg/115.0.1901.200" version="21.6.8" etag="mqGISNUqy6TO5Avna63H" type="github">
  <diagram name="第 1 页" id="AInEu3vMluZZ3Ehc3_Kp">
    <mxGraphModel>
      <root>
        <mxCell id="0" />
        <mxCell id="1" parent="0" />
      </root>
    </mxGraphModel>
  </diagram>
</mxfile>
